<svg xmlns="http://www.w3.org/2000/svg" viewBox="0 0 64 64">
  <rect width="64" height="64" rx="12" fill="#1a0d0e"/>
  <!-- gilt proscenium arch / curtain -->
  <path d="M10 14h44a0 0 0 0 1 0 0v6c-6 2-9 7-9 16 0 8 3 13 3 18H16c0-5 3-10 3-18 0-9-3-14-9-16v-6a0 0 0 0 1 0 0z" fill="#9e2b25"/>
  <path d="M22 16c0 14-2 22-2 38M32 16c0 14 0 24 0 38M42 16c0 14 2 22 2 38" stroke="#5e1518" stroke-width="1.4" fill="none" opacity="0.7"/>
  <rect x="8" y="12" width="48" height="5" rx="2.5" fill="#e3b341"/>
  <circle cx="32" cy="14.5" r="2" fill="#fff3cf"/>
</svg>
